<svg width="173" height="35" viewBox="0 0 173 35" fill="none" xmlns="http://www.w3.org/2000/svg">
	<g clip-path="url(#clip0)">
		<path d="M61.9168 15.256C59.6795 13.2287 56.8111 12.215 53.3117 12.215C51.835 12.1908 50.3648 12.417 48.9635 12.884C47.7012 13.3285 46.5575 14.0567 45.6202 15.0128C45.8395 12.438 46.2402 10.4841 46.8223 9.15115C47.8904 6.74366 49.684 5.54076 52.2031 5.54245C53.8904 5.54245 55.1491 6.06703 55.9793 7.11619C56.4703 7.76241 56.7132 8.35541 56.7132 8.89013H64.4326C64.3212 7.62646 63.9347 6.40256 63.3002 5.30451C62.6658 4.20645 61.7988 3.2609 60.7602 2.53435C58.587 0.931047 55.6705 0.129395 52.0108 0.129395C49.4798 0.129395 47.3015 0.622719 45.4759 1.60937C43.7154 2.5444 42.2017 3.88457 41.0594 5.51964C39.7551 7.41522 38.8761 9.78977 38.4222 12.6433C38.1365 14.712 38.0087 16.7994 38.04 18.8876C38.04 23.2548 38.9554 26.8171 40.7861 29.5743C43.1398 33.107 46.7996 34.8725 51.7653 34.8708C56.3851 34.8708 59.7917 33.6763 61.9852 31.2874C64.1786 28.8985 65.2754 26.1379 65.2754 23.0056C65.2737 19.8615 64.1542 17.2783 61.9168 15.256ZM57.675 26.5028L52.2183 29.6503L46.7641 26.4978V20.1952L52.2183 17.0401L57.675 20.1952V26.5028Z" fill="#F69E1D" />
		<path d="M76.7835 17.5973C78.5349 17.5973 80.1184 18.2502 81.534 19.5562C81.5898 19.6496 81.6187 19.7566 81.6176 19.8654V19.8932C81.534 20.3393 81.3215 20.5648 80.9772 20.5648H80.9216C80.7419 20.5648 80.2458 20.2506 79.4258 19.6272C78.6609 19.2161 77.8084 18.9953 76.9404 18.9835H76.6342C74.4559 18.9835 72.8116 20.1213 71.7014 22.397C71.4592 23.0657 71.3267 23.7691 71.3091 24.4802C71.3091 26.69 72.4463 28.3693 74.7208 29.5181C75.4173 29.7802 76.1558 29.9125 76.8999 29.9084C78.1856 29.9084 79.4241 29.4092 80.6153 28.4107L80.9089 28.3423H81.0355C81.3518 28.3423 81.5416 28.5653 81.6201 29.0138V29.0265C81.6201 29.5857 80.5866 30.2615 78.5197 31.0539C77.9994 31.1616 77.4712 31.2269 76.9404 31.249H76.5228C74.6955 31.249 72.9955 30.3815 71.423 28.6464C70.5026 27.4286 69.9937 25.9488 69.9702 24.4219C69.9702 22.2019 70.9522 20.3367 72.9162 18.8263C74.0552 18.0397 75.4025 17.6108 76.786 17.5947" fill="white" />
		<path d="M76.7835 17.5973C78.5349 17.5973 80.1184 18.2502 81.534 19.5562C81.5898 19.6496 81.6187 19.7566 81.6176 19.8654V19.8932C81.5341 20.3393 81.3215 20.5648 80.9772 20.5648H80.9216C80.7419 20.5648 80.2458 20.2506 79.4258 19.6272C78.6609 19.2161 77.8084 18.9953 76.9404 18.9835H76.6342C74.4559 18.9835 72.8116 20.1213 71.7014 22.397C71.4592 23.0657 71.3267 23.7691 71.3091 24.4802C71.3091 26.69 72.4463 28.3693 74.7208 29.5181C75.4173 29.7802 76.1558 29.9125 76.8999 29.9084C78.1856 29.9084 79.4241 29.4092 80.6153 28.4107L80.9089 28.3423H81.0355C81.3518 28.3423 81.5416 28.5653 81.6201 29.0138V29.0265C81.6201 29.5857 80.5866 30.2615 78.5197 31.0539C77.9994 31.1616 77.4712 31.2269 76.9404 31.249H76.5228C74.6955 31.249 72.9955 30.3815 71.423 28.6464C70.5026 27.4286 69.9937 25.9489 69.9702 24.4219C69.9702 22.2019 70.9522 20.3367 72.9162 18.8263C74.0552 18.0397 75.4025 17.6108 76.786 17.5947" stroke="white" stroke-width="0.527457" />
		<path d="M76.7835 17.5974C78.5349 17.5974 80.1184 18.2504 81.534 19.5563C81.5898 19.6497 81.6187 19.7567 81.6176 19.8655V19.8934C81.534 20.3394 81.3215 20.565 80.9772 20.565H80.9216C80.7419 20.565 80.2458 20.2507 79.4258 19.6273C78.6609 19.2162 77.8084 18.9955 76.9404 18.9836H76.6342C74.4559 18.9836 72.8116 20.1215 71.7014 22.3972C71.4592 23.0658 71.3267 23.7693 71.3091 24.4803C71.3091 26.6901 72.4463 28.3695 74.7208 29.5183C75.4173 29.7804 76.1558 29.9126 76.8999 29.9086C78.1856 29.9086 79.4241 29.4093 80.6153 28.4108L80.9089 28.3424H81.0355C81.3518 28.3424 81.5416 28.5654 81.6201 29.014V29.0267C81.6201 29.5859 80.5866 30.2617 78.5197 31.054C77.9994 31.1618 77.4712 31.2271 76.9404 31.2492H76.5228C74.6955 31.2492 72.9955 30.3816 71.423 28.6465C70.5026 27.4288 69.9937 25.949 69.9702 24.422C69.9702 22.2021 70.9522 20.3369 72.9162 18.8265C74.0547 18.0412 75.4011 17.6133 76.7835 17.5974Z" fill="white" stroke="white" stroke-width="0.527457" />
		<path d="M91.2605 17.7087C93.0018 17.7087 94.5803 18.371 95.9959 19.6956C97.3457 21.1147 98.0207 22.7096 98.0207 24.4801C98.0207 27.0143 96.8193 29.0104 94.4166 30.4684C93.4908 30.9627 92.4614 31.231 91.4124 31.2515H90.9948C89.1877 31.2515 87.5004 30.3933 85.9329 28.6768C85.0214 27.4659 84.5179 25.9963 84.4954 24.4801C84.4954 22.2838 85.4681 20.4372 87.4135 18.9404C88.5432 18.1541 89.8823 17.7251 91.258 17.7087H91.2605ZM85.8798 24.3281V24.5815C85.8798 26.6241 86.8576 28.2003 88.8131 29.3103C89.5207 29.6808 90.3077 29.873 91.1062 29.8704H91.4124C93.5181 29.8704 95.1295 28.779 96.2465 26.5962C96.4995 25.95 96.6325 25.2629 96.6388 24.5688V24.3281C96.6388 22.6234 95.8651 21.1966 94.3179 20.0478C93.4038 19.4135 92.3144 19.0812 91.2023 19.0975C88.9009 19.0975 87.2195 20.2962 86.1582 22.6935C85.9842 23.2214 85.8904 23.7723 85.8798 24.3281Z" fill="white" stroke="white" stroke-width="0.527457" />
		<path d="M91.2605 17.7087C93.0018 17.7087 94.5803 18.371 95.9959 19.6956C97.3457 21.1147 98.0207 22.7096 98.0207 24.4801C98.0207 27.0143 96.8193 29.0104 94.4166 30.4684C93.4908 30.9627 92.4614 31.231 91.4124 31.2515H90.9948C89.1877 31.2515 87.5004 30.3933 85.9329 28.6768C85.0214 27.4659 84.5179 25.9963 84.4954 24.4801C84.4954 22.2838 85.4681 20.4372 87.4135 18.9404C88.5439 18.1536 89.884 17.7246 91.2605 17.7087ZM85.8798 24.3281V24.5815C85.8798 26.6241 86.8576 28.2003 88.8131 29.3103C89.5207 29.6808 90.3077 29.873 91.1062 29.8704H91.4124C93.5181 29.8704 95.1295 28.779 96.2465 26.5962C96.4995 25.95 96.6325 25.2629 96.6388 24.5688V24.3281C96.6388 22.6234 95.8651 21.1966 94.3179 20.0478C93.4038 19.4135 92.3144 19.0812 91.2023 19.0975C88.9009 19.0975 87.2195 20.2962 86.1582 22.6935C85.9842 23.2214 85.8904 23.7723 85.8798 24.3281Z" fill="white" stroke="white" stroke-width="0.527457" />
		<path d="M102.06 17.6404C102.516 17.7519 102.743 17.9344 102.743 18.1853V20.1163C104.579 18.4674 106.344 17.6421 108.038 17.6404C109.894 17.6404 111.548 18.4193 112.999 19.9769C114.051 21.2829 114.578 22.6488 114.578 24.0748V30.7194C114.578 30.9728 114.353 31.1578 113.907 31.2516C113.459 31.168 113.237 30.9526 113.237 30.6079V24.7615C113.237 21.9823 112.025 20.145 109.602 19.2496C109.092 19.1103 108.567 19.0345 108.038 19.0241H107.884C105.859 19.0241 104.295 20.069 103.191 22.1589C102.901 22.811 102.756 23.818 102.756 25.1797V30.6637C102.756 30.9804 102.533 31.1705 102.085 31.2516H102.057C101.723 31.2516 101.508 30.9982 101.415 30.5243V18.4995C101.48 17.9217 101.698 17.6328 102.073 17.6328" fill="white" />
		<path d="M102.06 17.6404C102.516 17.7519 102.743 17.9344 102.743 18.1853V20.1163C104.579 18.4674 106.344 17.6421 108.038 17.6404C109.894 17.6404 111.548 18.4193 112.999 19.9769C114.051 21.2829 114.578 22.6488 114.578 24.0748V30.7194C114.578 30.9728 114.353 31.1578 113.907 31.2516C113.459 31.168 113.237 30.9526 113.237 30.6079V24.7615C113.237 21.9823 112.025 20.145 109.602 19.2496C109.092 19.1103 108.567 19.0345 108.038 19.0241H107.884C105.859 19.0241 104.295 20.069 103.191 22.1589C102.901 22.811 102.756 23.818 102.756 25.1797V30.6637C102.756 30.9804 102.533 31.1705 102.085 31.2516H102.057C101.723 31.2516 101.508 30.9982 101.415 30.5243V18.4995C101.48 17.9217 101.698 17.6328 102.073 17.6328" stroke="white" stroke-width="0.527457" />
		<path d="M102.06 17.6404C102.516 17.7519 102.743 17.9343 102.743 18.1852V20.1163C104.579 18.4674 106.344 17.6421 108.038 17.6404C109.894 17.6404 111.548 18.4192 112.999 19.9769C114.051 21.2829 114.578 22.6488 114.578 24.0747V30.7194C114.578 30.9728 114.353 31.1578 113.907 31.2516C113.459 31.1679 113.237 30.9525 113.237 30.6079V24.7615C113.237 21.9823 112.025 20.145 109.602 19.2496C109.092 19.1103 108.567 19.0345 108.038 19.0241H107.884C105.859 19.0241 104.295 20.069 103.191 22.1589C102.901 22.811 102.756 23.8179 102.756 25.1796V30.6636C102.756 30.9804 102.533 31.1705 102.085 31.2516H102.057C101.723 31.2516 101.508 30.9982 101.415 30.5243V18.4995C101.468 17.9293 101.685 17.6404 102.06 17.6404Z" fill="white" stroke="white" stroke-width="0.527457" />
		<path d="M118.782 17.6404C119.24 17.7519 119.468 17.9344 119.468 18.1853V20.1163C121.303 18.4674 123.068 17.6421 124.762 17.6404C126.618 17.6404 128.272 18.4193 129.723 19.9769C130.774 21.2829 131.3 22.6488 131.3 24.0748V30.7194C131.3 30.9813 131.077 31.1587 130.632 31.2516C130.184 31.168 129.958 30.9526 129.958 30.6079V24.7615C129.958 21.9823 128.748 20.145 126.326 19.2496C125.816 19.1105 125.291 19.0347 124.762 19.0241H124.608C122.583 19.0241 121.018 20.069 119.913 22.1589C119.611 22.811 119.46 23.818 119.46 25.1797V30.6637C119.46 30.9804 119.237 31.1705 118.789 31.2516H118.762C118.425 31.2516 118.212 30.9982 118.119 30.5243V18.4995C118.184 17.9217 118.403 17.6328 118.774 17.6328" fill="white" />
		<path d="M118.782 17.6404C119.24 17.7519 119.468 17.9344 119.468 18.1853V20.1163C121.303 18.4674 123.068 17.6421 124.762 17.6404C126.618 17.6404 128.272 18.4193 129.723 19.9769C130.774 21.2829 131.3 22.6488 131.3 24.0748V30.7194C131.3 30.9813 131.077 31.1587 130.632 31.2516C130.184 31.168 129.958 30.9526 129.958 30.6079V24.7615C129.958 21.9823 128.748 20.145 126.326 19.2496C125.816 19.1105 125.291 19.0347 124.762 19.0241H124.608C122.583 19.0241 121.018 20.069 119.913 22.1589C119.611 22.811 119.46 23.818 119.46 25.1797V30.6637C119.46 30.9804 119.237 31.1705 118.789 31.2516H118.762C118.425 31.2516 118.212 30.9982 118.119 30.5243V18.4995C118.184 17.9217 118.403 17.6328 118.774 17.6328" stroke="white" stroke-width="0.527457" />
		<path d="M118.782 17.6404C119.24 17.7519 119.468 17.9343 119.468 18.1852V20.1163C121.303 18.4674 123.068 17.6421 124.762 17.6404C126.618 17.6404 128.272 18.4192 129.723 19.9769C130.774 21.2829 131.3 22.6488 131.3 24.0747V30.7194C131.3 30.9813 131.077 31.1587 130.632 31.2516C130.184 31.1679 129.958 30.9525 129.958 30.6079V24.7615C129.958 21.9823 128.748 20.145 126.326 19.2496C125.816 19.1104 125.291 19.0347 124.762 19.0241H124.608C122.583 19.0241 121.018 20.069 119.913 22.1589C119.611 22.811 119.46 23.8179 119.46 25.1796V30.6636C119.46 30.9804 119.237 31.1705 118.789 31.2516H118.762C118.425 31.2516 118.212 30.9982 118.119 30.5243V18.4995C118.19 17.9267 118.411 17.6404 118.782 17.6404Z" fill="white" stroke="white" stroke-width="0.527457" />
		<path d="M140.998 17.6125C143.622 17.6125 145.661 18.8619 147.116 21.3606C147.613 22.3446 147.867 23.4334 147.857 24.536V24.7742C147.774 25.2582 147.558 25.5015 147.214 25.5015H135.729C136.25 27.2839 137.242 28.5713 138.705 29.3636C139.465 29.6724 140.275 29.8382 141.094 29.8527C142.097 29.8166 143.078 29.5486 143.959 29.0697H144.154C144.564 29.1541 144.769 29.3543 144.769 29.6703V29.8249C144.769 30.4787 143.624 30.9543 141.332 31.2516H140.998C138.555 31.2516 136.594 30.1045 135.114 27.8102C134.538 26.7747 134.236 25.6095 134.236 24.4245C134.236 21.9359 135.417 19.9499 137.779 18.4666C138.772 17.937 139.874 17.6446 140.998 17.6125ZM135.633 24.1584H146.417C146.417 23.1312 145.97 22.0077 145.076 20.7879C143.847 19.6323 142.627 19.0537 141.416 19.052H140.844C139.045 19.052 137.569 19.9288 136.415 21.6825C135.993 22.4477 135.727 23.2893 135.633 24.1584Z" fill="white" />
		<path d="M135.633 24.1584H146.417C146.417 23.1312 145.97 22.0077 145.076 20.7879C143.847 19.6323 142.627 19.0537 141.416 19.052H140.844C139.045 19.052 137.569 19.9288 136.415 21.6825C135.993 22.4477 135.727 23.2893 135.633 24.1584M140.998 17.6125C143.622 17.6125 145.661 18.8619 147.116 21.3606C147.613 22.3446 147.867 23.4334 147.857 24.536V24.7742C147.774 25.2582 147.558 25.5015 147.214 25.5015H135.729C136.25 27.2839 137.242 28.5713 138.705 29.3636C139.465 29.6724 140.275 29.8382 141.094 29.8527C142.097 29.8166 143.078 29.5486 143.959 29.0697H144.154C144.564 29.1541 144.769 29.3543 144.769 29.6703V29.8249C144.769 30.4787 143.624 30.9543 141.332 31.2516H140.998C138.555 31.2516 136.594 30.1045 135.114 27.8102C134.538 26.7747 134.236 25.6095 134.236 24.4245C134.236 21.9359 135.417 19.9499 137.779 18.4666C138.772 17.937 139.874 17.6446 140.998 17.6125Z" stroke="white" stroke-width="0.527457" />
		<path d="M140.998 17.6125C143.622 17.6125 145.661 18.8619 147.116 21.3606C147.613 22.3446 147.867 23.4334 147.857 24.536V24.7742C147.774 25.2582 147.558 25.5015 147.214 25.5015H135.729C136.25 27.2839 137.242 28.5713 138.705 29.3636C139.465 29.6724 140.275 29.8382 141.094 29.8527C142.097 29.8166 143.078 29.5486 143.959 29.0697H144.154C144.564 29.1541 144.769 29.3543 144.769 29.6703V29.8249C144.769 30.4787 143.624 30.9543 141.332 31.2516H140.998C138.555 31.2516 136.594 30.1045 135.114 27.8102C134.538 26.7747 134.236 25.6095 134.236 24.4245C134.236 21.9359 135.417 19.9499 137.779 18.4666C138.772 17.937 139.874 17.6446 140.998 17.6125ZM135.633 24.1584H146.417C146.417 23.1312 145.97 22.0077 145.076 20.7879C143.847 19.6323 142.627 19.0537 141.416 19.052H140.844C139.045 19.052 137.569 19.9288 136.415 21.6825C135.993 22.4477 135.727 23.2893 135.633 24.1584Z" fill="white" stroke="white" stroke-width="0.527457" />
		<path d="M157.343 17.5973C159.095 17.5973 160.678 18.2502 162.094 19.5562C162.149 19.6496 162.178 19.7566 162.177 19.8654V19.8932C162.094 20.3393 161.879 20.5648 161.534 20.5648H161.474C161.296 20.5648 160.798 20.2506 159.978 19.6272C159.213 19.2157 158.361 18.9949 157.492 18.9835H157.184C155.004 18.9835 153.36 20.1213 152.253 22.397C152.009 23.0654 151.875 23.7689 151.856 24.4802C151.856 26.69 152.992 28.3693 155.265 29.5181C155.962 29.7802 156.7 29.9125 157.444 29.9084C158.73 29.9084 159.969 29.4092 161.162 28.4107L161.456 28.3423H161.58C161.896 28.3423 162.086 28.5653 162.167 29.0138V29.0265C162.167 29.5857 161.134 30.2615 159.067 31.0539C158.546 31.1616 158.018 31.2269 157.487 31.249H157.067C155.242 31.249 153.542 30.3815 151.967 28.6464C151.048 27.428 150.539 25.9486 150.515 24.4219C150.515 22.2019 151.497 20.3367 153.463 18.8263C154.602 18.0397 155.949 17.6108 157.333 17.5947" fill="white" />
		<path d="M157.343 17.5973C159.095 17.5973 160.678 18.2502 162.094 19.5562C162.149 19.6496 162.178 19.7566 162.177 19.8654V19.8932C162.094 20.3393 161.879 20.5648 161.534 20.5648H161.474C161.296 20.5648 160.798 20.2506 159.978 19.6272C159.213 19.2157 158.361 18.9949 157.492 18.9835H157.184C155.004 18.9835 153.36 20.1213 152.253 22.397C152.009 23.0654 151.875 23.7689 151.856 24.4802C151.856 26.69 152.992 28.3693 155.265 29.5181C155.962 29.7802 156.7 29.9125 157.444 29.9084C158.73 29.9084 159.969 29.4092 161.162 28.4107L161.456 28.3423H161.58C161.896 28.3423 162.086 28.5653 162.167 29.0138V29.0265C162.167 29.5857 161.134 30.2615 159.067 31.0539C158.546 31.1616 158.018 31.2269 157.487 31.249H157.067C155.242 31.249 153.542 30.3815 151.967 28.6464C151.048 27.428 150.539 25.9486 150.515 24.4219C150.515 22.2019 151.497 20.3367 153.463 18.8263C154.602 18.0397 155.949 17.6108 157.333 17.5947" stroke="white" stroke-width="0.527457" />
		<path d="M157.343 17.5974C159.095 17.5974 160.678 18.2504 162.094 19.5563C162.149 19.6497 162.178 19.7567 162.177 19.8655V19.8934C162.094 20.3394 161.879 20.565 161.534 20.565H161.474C161.296 20.565 160.798 20.2507 159.978 19.6273C159.213 19.2159 158.361 18.9951 157.492 18.9836H157.184C155.004 18.9836 153.36 20.1215 152.253 22.3972C152.009 23.0655 151.875 23.769 151.856 24.4803C151.856 26.6901 152.992 28.3695 155.265 29.5183C155.962 29.7804 156.7 29.9126 157.444 29.9086C158.73 29.9086 159.969 29.4093 161.162 28.4108L161.456 28.3424H161.58C161.896 28.3424 162.086 28.5654 162.167 29.014V29.0267C162.167 29.5859 161.134 30.2617 159.067 31.054C158.546 31.1618 158.018 31.2271 157.487 31.2492H157.067C155.242 31.2492 153.542 30.3816 151.967 28.6465C151.048 27.4282 150.539 25.9488 150.515 24.422C150.515 22.2021 151.497 20.3369 153.463 18.8265C154.605 18.0388 155.956 17.6108 157.343 17.5974Z" fill="white" stroke="white" stroke-width="0.527457" />
		<path d="M167.948 12.5061H168.102C168.512 12.5897 168.717 12.7595 168.717 12.9825V17.947H171.202L171.663 17.8913C171.934 17.8913 172.129 18.1447 172.25 18.6186C172.25 18.8999 172.06 19.1077 171.678 19.2496L170.98 19.1939H168.717V27.0828C168.717 28.5645 169.238 29.4878 170.281 29.8527L171.511 29.9515H172.103C172.356 29.9515 172.536 30.1695 172.61 30.6079C172.534 31.0463 172.326 31.2643 171.979 31.2643H170.904C169.422 31.2643 168.319 30.4482 167.593 28.8162C167.463 28.3565 167.401 27.8799 167.411 27.4021V19.1939H166.029L165.27 19.2598C164.898 19.1178 164.71 18.905 164.71 18.6161C164.786 18.1776 165.093 17.9572 165.634 17.9572H165.786H167.421V13.3018C167.472 12.7722 167.649 12.5061 167.948 12.5061Z" fill="white" stroke="white" stroke-width="0.527457" />
		<path d="M167.948 12.5061H168.102C168.512 12.5897 168.717 12.7595 168.717 12.9825V17.947H171.202L171.663 17.8913C171.934 17.8913 172.129 18.1447 172.25 18.6186C172.25 18.8999 172.06 19.1077 171.678 19.2496L170.98 19.1939H168.717V27.0828C168.717 28.5645 169.238 29.4878 170.281 29.8527L171.511 29.9515H172.103C172.356 29.9515 172.536 30.1695 172.61 30.6079C172.534 31.0463 172.326 31.2643 171.979 31.2643H170.904C169.422 31.2643 168.319 30.4482 167.593 28.8162C167.463 28.3565 167.401 27.8799 167.411 27.4021V19.1939H166.029L165.27 19.2598C164.898 19.1178 164.71 18.905 164.71 18.6161C164.786 18.1776 165.093 17.9572 165.634 17.9572H165.786H167.421V13.3018C167.477 12.7722 167.654 12.5061 167.953 12.5061" fill="white" />
		<path d="M167.948 12.5061H168.102C168.512 12.5897 168.717 12.7595 168.717 12.9825V17.947H171.202L171.663 17.8913C171.934 17.8913 172.129 18.1447 172.25 18.6186C172.25 18.8999 172.06 19.1077 171.678 19.2496L170.98 19.1939H168.717V27.0828C168.717 28.5645 169.238 29.4878 170.281 29.8527L171.511 29.9515H172.103C172.356 29.9515 172.536 30.1695 172.61 30.6079C172.534 31.0463 172.326 31.2643 171.979 31.2643H170.904C169.422 31.2643 168.319 30.4482 167.593 28.8162C167.463 28.3565 167.401 27.8799 167.411 27.4021V19.1939H166.029L165.27 19.2598C164.898 19.1178 164.71 18.905 164.71 18.6161C164.786 18.1776 165.093 17.9572 165.634 17.9572H165.786H167.421V13.3018C167.477 12.7722 167.654 12.5061 167.953 12.5061" stroke="white" stroke-width="0.527457" />
		<path d="M9.0481 4.85046L17.4356 0L25.8256 4.85046V14.5489L17.4356 19.3993L9.0481 14.5489V4.85046Z" fill="white" />
		<path d="M18.0962 20.451L26.4837 15.603L34.8737 20.451V30.1493L26.4837 34.9998L18.0962 30.1493V20.451Z" fill="white" />
		<path d="M0 20.451L8.39004 15.603L16.7776 20.451V30.1493L8.39004 34.9998L0 30.1493V20.451Z" fill="#F69E1D" />
	</g>
	<defs>
		<clipPath id="clip0">
			<rect width="172.741" height="34.9999" fill="white" />
		</clipPath>
	</defs>
</svg>